<svg width="22" height="20" viewBox="0 0 22 20" fill="none" xmlns="http://www.w3.org/2000/svg">
<path d="M19.28 1.60607C18.28 1.39284 17.54 0.239485 16.57 0.0359518C15.6 -0.167581 14.4 0.569015 13.42 0.35579C12.9044 0.180009 12.3548 0.118367 11.8114 0.175391C11.2681 0.232414 10.7448 0.406654 10.28 0.68532L10.21 14.5353L10 15.5045C9.64 17.0746 10.67 18.6253 12.29 18.9742C13.9 19.3135 15.5 18.3249 15.86 16.7548L16.07 15.7856L22 3.17618C21.6984 2.73236 21.297 2.36052 20.8259 2.08858C20.3548 1.81665 19.8263 1.65168 19.28 1.60607ZM13.91 16.338C13.79 16.8711 13.25 17.2103 12.7 17.1037C12.14 16.9874 11.79 16.4737 11.91 15.9212L12.77 12.1123C12.8218 11.8652 12.9709 11.6475 13.1856 11.5052C13.4003 11.3629 13.6637 11.3073 13.92 11.3502C14.1763 11.3931 14.4053 11.531 14.5584 11.7348C14.7115 11.9386 14.7766 12.1922 14.74 12.4418C14.74 12.4806 14.73 12.5096 14.72 12.5484L13.91 16.338ZM8.72 18.7416C8.33 18.1504 8.08 17.4914 8 16.8032L7.24 13.5661C7.1 13.0524 7.41 12.5193 8 12.3643C8.07299 12.3546 8.14701 12.3546 8.22 12.3643V1.38315C7.31 1.38315 6.22 0.830701 5.38 1.02454C4.54 1.21838 3.69 2.36205 2.72 2.57527C1.61 2.67219 0.61 3.24402 0 4.14539L5.93 16.7451L6.14 17.7143C6.31068 18.4669 6.78236 19.1232 7.4516 19.5393C8.12084 19.9554 8.93301 20.0972 9.71 19.9338H9.81C9.38 19.5945 9 19.1972 8.72 18.7416Z" fill="#4882D1"/>
</svg>
