<svg width="22" height="22" viewBox="0 0 22 22" fill="none" xmlns="http://www.w3.org/2000/svg">
<path d="M11 0.171875C5.01406 0.171875 0.171875 5.01406 0.171875 11C0.171875 16.9859 5.01406 21.8281 11 21.8281C16.9859 21.8281 21.8281 16.9859 21.8281 11C21.8281 5.01406 16.9859 0.171875 11 0.171875ZM11 1.57812C16.1984 1.57812 20.4219 5.80156 20.4219 11C20.4219 16.1984 16.1984 20.4219 11 20.4219C5.80156 20.4219 1.57812 16.1984 1.57812 11C1.57812 5.80156 5.80156 1.57812 11 1.57812ZM2.77437 8.55781C2.55359 9.45781 2.42188 10.2922 2.42188 11.0891C9.20469 12.5094 8.11719 14.0141 9.35938 19.4234C9.89375 19.5219 10.4375 19.5781 11 19.5781C11.5625 19.5781 12.1062 19.5219 12.6406 19.4234C13.8828 14.0141 12.7953 12.5094 19.5781 11.0891C19.55 10.2031 19.4375 9.28906 19.2266 8.55781C15.2516 7.56406 13.1141 7.0625 11 7.0625C8.88594 7.0625 6.74844 7.56406 2.77437 8.55781ZM11 7.57812C12.8844 7.57812 14.4219 9.11563 14.4219 11C14.4219 12.8844 12.8844 14.4219 11 14.4219C9.11563 14.4219 7.57812 12.8844 7.57812 11C7.57812 9.11563 9.11563 7.57812 11 7.57812ZM11 8.42188C9.57031 8.42188 8.42188 9.57031 8.42188 11C8.42188 12.4297 9.57031 13.5781 11 13.5781C12.4297 13.5781 13.5781 12.4297 13.5781 11C13.5781 9.57031 12.4297 8.42188 11 8.42188Z" fill="#4882D1"/>
</svg>
