<svg width="13" height="20" viewBox="0 0 13 20" fill="none" xmlns="http://www.w3.org/2000/svg">
<path fill-rule="evenodd" clip-rule="evenodd" d="M6.5 0C3.27828 0 0.666668 2.61161 0.666668 5.83333C0.666668 6.75381 1.41286 7.5 2.33333 7.5C3.25381 7.5 4 6.75381 4 5.83333C4 4.45256 5.11923 3.33333 6.5 3.33333C7.88078 3.33333 9 4.45256 9 5.83333V6.25C9 6.96744 8.72699 7.47219 8.24964 7.9018C7.72457 8.37436 6.9441 8.75172 6.02109 9.02862C5.11552 9.30029 4.18706 9.44173 3.46958 9.51348C3.11491 9.54895 2.82127 9.56647 2.62004 9.5751C2.51964 9.5794 2.44283 9.58146 2.3936 9.58245C2.369 9.58294 2.35133 9.58316 2.34111 9.58326L2.33112 9.58333C1.41167 9.58453 0.666668 10.3303 0.666668 11.25V18.3333C0.666668 19.2538 1.41286 20 2.33333 20H10.6667C11.5871 20 12.3333 19.2538 12.3333 18.3333V5.83333C12.3333 2.61161 9.72173 0 6.5 0ZM9.6583 12.3254C9.20269 11.8915 8.464 11.8915 8.00839 12.3254L5.91668 14.3175L4.99164 13.4365C4.53602 13.0026 3.79733 13.0026 3.34172 13.4365C2.88611 13.8705 2.88611 14.574 3.34172 15.0079L5.09172 16.6746C5.54733 17.1085 6.28602 17.1085 6.74164 16.6746L9.6583 13.8968C10.1139 13.4629 10.1139 12.7594 9.6583 12.3254Z" fill="#4882D1"/>
</svg>
