<svg width="12" height="20" viewBox="0 0 12 20" fill="none" xmlns="http://www.w3.org/2000/svg">
<path fill-rule="evenodd" clip-rule="evenodd" d="M5.18691 0C6.11048 0 6.858 0.795056 6.858 1.74917C6.858 2.70305 6.11048 3.4981 5.18691 3.4981C4.26334 3.4981 3.49373 2.70305 3.49373 1.74917C3.49373 0.795056 4.26357 0 5.18691 0V0ZM5.29692 3.65716C5.93237 3.63669 6.42366 4.04516 6.68217 4.47504L8.44117 7.49621L11.5196 8.83644C12.399 9.22232 11.9813 10.4263 10.9919 10.1538C10.9565 10.129 10.9197 10.1062 10.8819 10.0856L8.81493 14.8103C8.81493 14.8103 9.47452 16.3778 10.3102 18.1498C11.1237 19.9442 9.14472 20.7166 8.41908 19.0583L7.69366 17.3773L6.63821 19.7625L6.1984 19.558L7.42968 16.7868L5.36274 12.1303C5.27483 12.1529 5.18691 12.1303 5.0769 12.1303C5.0769 12.1303 2.68017 17.7635 2.02034 19.2402C1.38284 20.7166 -0.508039 19.8307 0.129465 18.3766C0.767198 16.923 3.80167 9.85855 3.80167 9.85855L1.54614 9.89667C1.2045 9.89973 1.12273 9.84349 1.1011 9.57902C1.06625 8.8802 1.00658 7.23597 1.16305 6.47386C1.36484 5.49151 1.48533 4.41034 2.15244 4.08869C2.81978 3.76704 3.9775 4.65669 3.9775 4.65669C4.15333 4.0661 4.70315 3.65716 5.29692 3.65716V3.65716ZM6.66007 7.20068V9.92702L8.55118 14.1976L10.4421 9.9042L7.69366 8.72303C7.56155 8.65479 7.45177 8.56397 7.36363 8.42773L6.66007 7.20068Z" fill="#4882D1"/>
</svg>
