<svg width="170" height="60" viewBox="0 0 170 60" fill="none" xmlns="http://www.w3.org/2000/svg">
<path fill-rule="evenodd" clip-rule="evenodd" d="M131.439 50.9894C130.922 49.2664 130.586 47.0472 130.431 44.3321L131.672 42.1391C132.086 41.3559 132.473 40.5204 132.835 39.6328C135.834 32.8449 137.98 26.8663 139.272 21.6971C140.565 16.5278 141.237 12.2724 141.288 8.93064C141.34 5.53669 140.927 3.10872 140.048 1.64672C139.22 0.132497 138.161 -0.337436 136.868 0.236922C135.575 0.811282 134.205 2.45604 132.758 5.1712C131.31 7.83414 130.043 11.6719 128.958 16.6845C128.182 20.1829 127.587 23.5507 127.174 26.788C126.76 30.0253 126.502 33.1321 126.398 36.1083C125.364 34.1764 123.968 33.0798 122.21 32.8188C120.504 32.5577 118.772 32.9232 117.014 33.9153C115.256 34.8551 113.654 36.3172 112.206 38.3013C110.758 40.2332 109.776 42.4785 109.259 45.037L109.241 45.122L109.232 45.1666L109.219 45.2284C109.212 45.2427 109.205 45.2572 109.197 45.2719C108.732 46.3685 108.163 47.4127 107.491 48.4048C106.819 49.3969 106.121 50.2845 105.397 51.0678C104.725 51.7988 104.053 52.3992 103.381 52.8692C103.229 52.9839 103.081 53.0846 102.936 53.1714C102.804 53.0757 102.675 52.9792 102.547 52.882L103.739 50.8873C103.769 50.8372 103.777 50.7765 103.761 50.7197C103.745 50.6629 103.707 50.6161 103.655 50.5895L103.095 50.3024C103.044 50.2765 102.983 50.2727 102.928 50.2926C102.873 50.3125 102.83 50.3553 102.808 50.4095L102.369 51.4677C96.6095 46.8589 93.4893 32.1255 92.8669 29.1866C92.8164 28.9481 92.7823 28.7873 92.7646 28.7159C92.7646 28.7159 92.7054 28.4779 92.6861 28.3986C92.6668 28.3193 92.6268 28.2143 92.6268 28.2143C92.6212 28.2382 92.5979 28.2954 92.592 28.3193L92.592 28.1952L92.4505 28.4779C89.4003 34.5745 79.995 47.4902 78.1339 48.4068L78.0812 47.4196C78.078 47.361 78.0509 47.3064 78.0062 47.2685C77.9617 47.2308 77.9025 47.2137 77.8454 47.2212L77.2228 47.3019C77.165 47.3093 77.1127 47.3409 77.0792 47.3885C77.0456 47.4363 77.0327 47.4965 77.0446 47.5538L77.5866 50.246C77.3973 50.3441 77.2928 50.3955 77.2928 50.3955L77.6287 50.4542L77.7231 50.9228C77.6315 50.995 77.5403 51.0693 77.4497 51.1461C75.8986 52.4515 73.9856 53.3913 71.7107 53.9657C70.7801 54.1745 69.6943 54.279 68.4535 54.279C67.2643 54.2267 66.1269 53.9396 65.0411 53.4174C63.9554 52.8953 63.0506 52.0598 62.3268 50.9111C61.6547 49.7624 61.3961 48.196 61.5513 46.2118V45.8985C62.5336 46.2118 63.6193 46.5251 64.8085 46.8384C66.0493 47.1517 67.2643 47.2822 68.4535 47.23C69.6426 47.1778 70.7801 46.8384 71.8658 46.2118C72.9516 45.5852 73.8564 44.5148 74.5802 43.0006C75.4591 41.1209 75.6659 39.5806 75.2006 38.3796C74.787 37.1265 73.9598 36.2127 72.7189 35.6384C71.5298 35.0118 70.0821 34.7768 68.3759 34.9335C66.7215 35.0379 65.0928 35.5078 63.4901 36.3433C61.939 37.1787 60.5689 38.4057 59.3798 40.0244C58.1906 41.643 57.5185 43.6533 57.3634 46.0552L57.3593 46.1186C57.3567 46.1609 57.3543 46.203 57.352 46.245C55.1884 50.0896 52.9367 52.9764 50.5967 54.9055C48.0633 56.9419 45.7367 57.9079 43.6169 57.8034C41.5488 57.7512 39.8427 56.6808 38.4984 54.5922C37.2059 52.4514 36.6113 49.3447 36.7147 45.2719C36.8181 42.9223 37.0766 40.416 37.4902 37.7531C37.9556 35.0901 38.4984 32.375 39.1188 29.6076C39.791 26.788 40.4889 23.9945 41.2128 21.2272C41.9366 18.4598 42.5022 16.0961 43.1226 13.4854C45.3458 13.7987 47.3641 14.0407 49.4334 14.2787C51.5532 14.2787 53.6698 14.0075 55.376 13.4854C57.0822 12.911 58.4284 11.8577 59.6176 10.709C60.8584 9.56028 61.8161 7.59917 62.2297 5.71945C62.3331 5.35395 62.2038 5.09288 61.8419 4.93623C61.48 4.77959 61.2215 4.98845 61.0664 5.56281C60.5494 7.28589 59.7221 8.64346 58.5847 9.63553C57.4989 10.5754 56.1805 11.2281 54.6295 11.5936C53.0784 11.9591 51.3464 12.0896 49.4334 11.9852C47.5721 11.8285 45.6592 11.5414 43.6945 11.1236C44.0564 9.55721 44.3666 7.96467 44.6251 6.34602C44.7285 5.77166 44.6768 5.30173 44.47 4.93623C44.2632 4.51852 43.9788 4.23134 43.6169 4.07469C43.3067 3.86583 42.9448 3.81362 42.5312 3.91805C42.1693 3.97027 41.8332 4.17912 41.523 4.54462C41.3162 5.48448 41.1094 6.45045 40.9026 7.44253C40.6958 8.38239 40.4631 9.32225 40.2046 10.2621C39.1705 10.001 38.1624 9.73996 37.18 9.47889L34.233 8.53903C32.1649 7.86024 29.7608 7.23367 27.0205 6.65931C24.2803 6.03273 21.4626 5.64113 18.5673 5.48448C15.6719 5.27562 12.8542 5.35395 10.114 5.71945C7.32205 6.08495 4.86619 6.92038 2.7464 8.22574C1.16137 9.20181 0 11.185 0 11.185C0 11.185 1.6495 9.91574 3.21172 9.40056C5.59002 8.30406 8.17513 7.65138 10.967 7.44253C13.7073 7.23367 16.4733 7.28588 19.2652 7.59917C22.0054 7.86024 24.6423 8.30406 27.1757 8.93064C29.7091 9.55721 31.9064 10.1838 33.7677 10.8104C35.7841 11.4369 37.7487 11.9852 39.6617 12.4551C38.9379 15.2225 38.1624 17.9899 37.3351 20.7572C36.5596 23.4724 35.8358 26.1875 35.1636 28.9027C34.5432 31.6178 34.0003 34.333 33.535 37.0482C33.1214 39.7633 32.8887 42.5046 32.837 45.2719C32.7853 48.5093 33.1731 51.2244 34.0003 53.4174C34.8793 55.5582 36.0426 57.1769 37.4902 58.2734C38.9379 59.4221 40.5924 59.9964 42.4536 59.9964C44.3149 60.0487 46.2279 59.5265 48.1926 58.43C50.1572 57.3857 52.0961 55.7671 54.0091 53.5741C55.2358 52.1678 56.3774 50.5253 57.434 48.6467C57.5998 49.8674 57.9641 50.9355 58.5267 51.851C59.4573 53.313 60.6465 54.4356 62.0941 55.2188C63.5418 56.002 65.0928 56.4459 66.7473 56.5503C68.4535 56.7069 69.9787 56.5764 71.323 56.1587C73.237 55.5829 75.0067 54.7479 76.6321 53.6538C77.0876 53.9304 80.6744 56.0422 83.0248 55.4488C84.3814 55.1063 86.333 49.7954 88.0891 45.0166C89.5866 40.9413 90.9419 37.2529 91.665 37.3624C92.5459 37.4958 93.6895 42.6637 94.7508 47.46C95.5127 50.9031 96.2323 54.1546 96.7819 55.2151C97.3333 56.6455 98.0704 57.2552 99.1928 57.2552C100.02 57.2552 100.951 56.9419 101.985 56.3153C103.071 55.6887 104.13 54.8272 105.164 53.7307C106.198 52.6342 107.181 51.3549 108.111 49.8929C108.385 49.4639 108.644 49.0282 108.891 48.5857C108.926 49.9498 109.204 51.1427 109.724 52.1643C110.655 53.9918 112.025 55.1405 113.835 55.6104C115.644 56.0281 117.738 55.741 120.116 54.7489C122.546 53.7046 124.925 51.7727 127.251 48.9531C127.768 51.6682 128.492 53.7829 129.423 55.2971C130.405 56.8114 131.568 57.5163 132.913 57.4118C134.309 57.3074 135.86 56.2892 137.566 54.3573C138.794 53.0075 140.085 51.1226 141.44 48.7024C141.446 49.7166 141.597 50.6356 141.891 51.4594C142.563 53.2869 143.675 54.4617 145.226 54.9839C146.777 55.506 148.587 55.271 150.655 54.279C152.775 53.2347 154.791 51.2766 156.704 48.4048C156.652 49.919 156.807 51.4072 157.169 52.8692C157.531 54.2789 158.074 55.3494 158.798 56.0804C159.573 56.8636 160.504 57.1507 161.59 56.9419C162.676 56.733 163.891 55.7149 165.235 53.8873C165.597 53.4174 165.984 52.8431 166.398 52.1643C166.812 51.4333 167.225 50.6762 167.639 49.8929L168.88 47.5433C169.293 46.7079 169.655 45.9507 169.966 45.2719C170.069 44.9587 169.94 44.7498 169.578 44.6454C169.268 44.5409 168.983 44.7498 168.725 45.2719C167.174 48.6659 165.829 51.0155 164.692 52.3209C163.554 53.5741 162.65 54.0962 161.978 53.8873C161.305 53.6785 160.814 52.9214 160.504 51.616C160.246 50.3107 160.168 48.7703 160.271 46.995C160.426 45.2197 160.763 43.4183 161.28 41.5908C161.848 39.7111 162.572 38.1186 163.451 36.8132C163.193 35.8211 162.546 35.4295 161.512 35.6384C160.53 35.795 159.677 36.5521 158.953 37.9097C158.85 38.1708 158.72 38.458 158.565 38.7712C158.462 39.0323 158.358 39.3195 158.255 39.6328C157.428 37.4398 156.239 36.0039 154.688 35.3251C153.188 34.5941 151.611 34.4896 149.957 35.0118C148.354 35.5339 146.829 36.6043 145.381 38.223C143.934 39.8416 142.848 41.878 142.124 44.3321C142.021 44.6901 141.929 45.0404 141.85 45.383C140.064 48.7178 138.481 51.0565 137.101 52.3992C135.756 53.7568 134.619 54.3051 133.688 54.044C132.758 53.7307 132.008 52.7125 131.439 50.9894ZM136.403 25.2999C135.162 29.7903 133.378 34.7246 131.051 40.1027L130.353 41.5125C130.353 37.8053 130.612 33.6281 131.129 28.981C131.646 24.2817 132.447 19.478 133.533 14.5698C134.412 10.4449 135.265 7.46863 136.092 5.64112C136.971 3.81362 137.695 2.95208 138.264 3.05651C138.884 3.16094 139.272 4.15301 139.427 6.03273C139.634 7.86024 139.505 10.4188 139.039 13.7083C138.574 16.9456 137.695 20.8094 136.403 25.2999ZM126.398 39.6328C126.398 42.3479 126.553 44.802 126.864 46.995C125.209 48.9792 123.477 50.5195 121.668 51.616C119.91 52.7125 118.333 53.2608 116.937 53.2608C115.541 53.2086 114.455 52.5298 113.68 51.2244C112.956 49.919 112.826 47.8566 113.292 45.037C113.654 42.8962 114.403 40.9904 115.541 39.3195C116.73 37.6486 117.997 36.4738 119.341 35.795C120.737 35.1162 122.081 35.0379 123.374 35.56C124.718 36.0822 125.726 37.4398 126.398 39.6328ZM61.7064 44.6454C62.4819 44.9064 63.3867 45.1675 64.4207 45.4286C65.4548 45.6897 66.463 45.8463 67.4453 45.8985C68.4793 45.8985 69.4358 45.7158 70.3148 45.3503C71.2454 44.9326 71.9951 44.2277 72.5638 43.2356C73.2876 41.9824 73.5461 40.912 73.3393 40.0244C73.1842 39.1367 72.7706 38.4841 72.0985 38.0663C71.4264 37.5964 70.5474 37.3876 69.4617 37.4398C68.4276 37.4398 67.3936 37.7008 66.3596 38.223C65.3255 38.7451 64.369 39.5284 63.4901 40.5726C62.6111 41.6169 62.0166 42.9745 61.7064 44.6454ZM157.247 43.7838L157.557 42.0608C156.937 39.8677 156.006 38.4057 154.765 37.6747C153.576 36.9437 152.335 36.7871 151.043 37.2048C149.802 37.5703 148.613 38.4318 147.475 39.7894C146.389 41.0948 145.666 42.7657 145.304 44.802C144.838 47.465 144.89 49.3969 145.459 50.5978C146.079 51.7988 146.984 52.3731 148.173 52.3209C149.414 52.2687 150.81 51.6421 152.361 50.4412C153.964 49.2403 155.489 47.5955 156.937 45.5069L157.247 43.7838ZM78.1459 48.6362L78.2141 49.9115C80.9661 48.4126 90.958 35.1413 92.3571 29.1014C89.9369 35.2999 79.8084 47.8239 78.1459 48.6362ZM92.8515 30.3707C92.8 30.1685 92.7549 29.9912 92.7163 29.8413C92.7329 29.9269 92.7511 30.0212 92.771 30.1241C93.4655 33.7239 96.1547 47.6614 101.971 52.4287L102.288 51.6636C97.6584 49.26 93.9117 34.5368 92.8515 30.3707Z" fill="#FFFDF3"/>
</svg>
