<svg width="91" height="100" viewBox="0 0 91 100" fill="none" xmlns="http://www.w3.org/2000/svg">
<g filter="url(#filter0_d_302_2338)">
<path d="M24.1096 48.7741C24.1084 53.1576 25.2589 57.4378 27.4465 61.2104L23.9004 74.1002L37.1506 70.6415C40.8155 72.6277 44.9217 73.6684 49.0944 73.6687H49.1054C62.8803 73.6687 74.0934 62.5097 74.0993 48.7937C74.1019 42.1474 71.5044 35.8976 66.785 31.1956C62.0664 26.4941 55.7908 23.9034 49.1043 23.9004C35.3278 23.9004 24.1155 35.0588 24.1098 48.7741" fill="url(#paint0_linear_302_2338)"/>
<path d="M23.2173 48.7659C23.2159 53.3072 24.4077 57.7404 26.6733 61.6481L23 75L36.7254 71.4173C40.5071 73.47 44.765 74.5523 49.0977 74.5539H49.1089C63.378 74.5539 74.9939 62.9935 75 48.7866C75.0024 41.9014 72.3114 35.427 67.4234 30.5565C62.5348 25.6867 56.0348 23.0028 49.1089 23C34.8373 23 23.223 34.5588 23.2173 48.7659ZM31.3911 60.9751L30.8786 60.1652C28.7243 56.755 27.5872 52.8142 27.5888 48.7675C27.5935 36.959 37.2468 27.3518 49.117 27.3518C54.8654 27.3542 60.2677 29.5851 64.3311 33.6327C68.3942 37.6807 70.63 43.0617 70.6285 48.7849C70.6233 60.5935 60.9697 70.202 49.1089 70.202H49.1003C45.2383 70.1999 41.4507 69.1674 38.1474 67.2162L37.3613 66.7521L29.2164 68.878L31.3911 60.9749V60.9751Z" fill="url(#paint1_linear_302_2338)"/>
<path d="M42.638 37.994C42.1533 36.9216 41.6433 36.9 41.1824 36.8812C40.805 36.865 40.3735 36.8662 39.9425 36.8662C39.5111 36.8662 38.8101 37.0278 38.2176 37.6719C37.6244 38.3165 35.9531 39.8744 35.9531 43.043C35.9531 46.2118 38.2714 49.274 38.5946 49.7041C38.9181 50.1334 43.07 56.8438 49.6456 59.4254C55.1104 61.5707 56.2226 61.144 57.4086 61.0365C58.5949 60.9293 61.2363 59.479 61.7752 57.9751C62.3145 56.4714 62.3145 55.1824 62.1528 54.9131C61.9911 54.6447 61.5597 54.4835 60.9127 54.1616C60.2656 53.8395 57.085 52.2814 56.4921 52.0664C55.899 51.8517 55.4677 51.7445 55.0363 52.3894C54.6049 53.0332 53.366 54.4835 52.9884 54.9131C52.6112 55.3436 52.2336 55.3972 51.5868 55.075C50.9395 54.7519 48.856 54.0726 46.3842 51.8788C44.461 50.1716 43.1626 48.0635 42.7852 47.4186C42.4078 46.7748 42.7448 46.4257 43.0692 46.1048C43.3599 45.8162 43.7164 45.3528 44.0401 44.9768C44.3627 44.6007 44.4704 44.3324 44.6861 43.9028C44.902 43.4729 44.7939 43.0968 44.6325 42.7747C44.4704 42.4525 43.2132 39.2674 42.638 37.994Z" fill="white"/>
</g>
<defs>
<filter id="filter0_d_302_2338" x="0" y="0" width="100" height="100" filterUnits="userSpaceOnUse" color-interpolation-filters="sRGB">
<feFlood flood-opacity="0" result="BackgroundImageFix"/>
<feColorMatrix in="SourceAlpha" type="matrix" values="0 0 0 0 0 0 0 0 0 0 0 0 0 0 0 0 0 0 127 0" result="hardAlpha"/>
<feOffset dx="1" dy="1"/>
<feGaussianBlur stdDeviation="12"/>
<feComposite in2="hardAlpha" operator="out"/>
<feColorMatrix type="matrix" values="0 0 0 0 0 0 0 0 0 0 0 0 0 0 0 0 0 0 0.1 0"/>
<feBlend mode="normal" in2="BackgroundImageFix" result="effect1_dropShadow_302_2338"/>
<feBlend mode="normal" in="SourceGraphic" in2="effect1_dropShadow_302_2338" result="shape"/>
</filter>
<linearGradient id="paint0_linear_302_2338" x1="2533.85" y1="5043.89" x2="2533.85" y2="23.9004" gradientUnits="userSpaceOnUse">
<stop stop-color="#1FAF38"/>
<stop offset="1" stop-color="#60D669"/>
</linearGradient>
<linearGradient id="paint1_linear_302_2338" x1="2623" y1="5223" x2="2623" y2="23" gradientUnits="userSpaceOnUse">
<stop stop-color="#F9F9F9"/>
<stop offset="1" stop-color="white"/>
</linearGradient>
</defs>
</svg>
